<?xml version="1.0" encoding="UTF-8" standalone="no"?>
<!-- Created with Inkscape (http://www.inkscape.org/) -->

<svg
   xmlns:dc="http://purl.org/dc/elements/1.1/"
   xmlns:cc="http://creativecommons.org/ns#"
   xmlns:rdf="http://www.w3.org/1999/02/22-rdf-syntax-ns#"
   xmlns:svg="http://www.w3.org/2000/svg"
   xmlns="http://www.w3.org/2000/svg"
   xmlns:sodipodi="http://sodipodi.sourceforge.net/DTD/sodipodi-0.dtd"
   xmlns:inkscape="http://www.inkscape.org/namespaces/inkscape"
   version="1.1"
   id="svg2"
   width="64"
   height="64"
   viewBox="0 0 64 64"
   sodipodi:docname="time.svg"
   inkscape:version="0.92.2 2405546, 2018-03-11">
  <metadata
     id="metadata8">
    <rdf:RDF>
      <cc:Work
         rdf:about="">
        <dc:format>image/svg+xml</dc:format>
        <dc:type
           rdf:resource="http://purl.org/dc/dcmitype/StillImage" />
        <dc:title></dc:title>
      </cc:Work>
    </rdf:RDF>
  </metadata>
  <defs
     id="defs6" />
  <sodipodi:namedview
     pagecolor="#ffffff"
     bordercolor="#666666"
     borderopacity="1"
     objecttolerance="10"
     gridtolerance="10"
     guidetolerance="10"
     inkscape:pageopacity="0"
     inkscape:pageshadow="2"
     inkscape:window-width="2560"
     inkscape:window-height="1379"
     id="namedview4"
     showgrid="false"
     inkscape:showpageshadow="false"
     inkscape:zoom="11.158529"
     inkscape:cx="31.188378"
     inkscape:cy="32.572434"
     inkscape:window-x="0"
     inkscape:window-y="61"
     inkscape:window-maximized="0"
     inkscape:current-layer="svg2" />
  <path
     inkscape:connector-curvature="0"
     id="path819"
     d="M 25.39664,55.084551 C 12.12936,50.827321 6.6766099,33.858525 15.04541,22.87181 21.81032,13.990724 33.14648,11.720734 43.06461,17.261159 l 2.46301,1.375876 1.36179,-1.27934 c 1.04906,-0.985539 1.55905,-1.154911 2.22073,-0.737535 1.82145,1.148944 2.01587,2.181628 0.67868,3.605001 l -1.26387,1.345319 1.64201,3.265947 c 3.03708,6.040736 3.53447,10.884889 1.71593,16.71167 -3.40424,10.907544 -15.46678,17.072404 -26.48625,13.536454 z m 13.48818,-4.82791 c 3.63751,-1.6653 6.46498,-4.496351 8.20438,-8.214739 2.82922,-6.048161 1.42143,-13.860175 -3.35922,-18.640834 -6.37495,-6.374946 -17.18401,-6.374946 -23.55896,0 -4.08701,4.087014 -5.85233,10.670971 -4.29629,16.023541 2.95607,10.168532 13.55793,15.159372 23.01009,10.832032 z M 30.09676,38.729003 C 29.94629,38.336862 29.88892,34.605754 29.96929,30.43765 l 0.14613,-7.578366 h 1.83508 1.83508 v 8.126788 8.126788 l -1.70761,0.164565 c -1.08089,0.104165 -1.80802,-0.09711 -1.98121,-0.548422 z M 26.02454,11.777611 C 25.82338,11.576455 25.65879,10.625408 25.65879,9.6641736 v -1.747696 h 6.32336 6.32336 l -0.16273,1.966158 -0.16273,1.9661604 -5.79489,0.147279 c -3.18719,0.08101 -5.95947,-0.0173 -6.16062,-0.218464 z"
     style="fill:#1d1d1d;stroke-width:0.52430892" />
</svg>
